<svg width="394" height="112" viewBox="0 0 394 112" fill="none" xmlns="http://www.w3.org/2000/svg">
<path d="M30.8446 112C19.9487 112 15.5636 95.0147 12.3618 82.6129C11.5787 79.5793 10.8386 76.7137 10.2686 75.3454C3.83863 59.92 0 43.9626 0 32.6587C0 24.2279 2.87284 16.2264 8.08959 10.1286C13.6778 3.59712 21.3826 0 29.7857 0C36.5192 0 43.1931 3.85525 48.0655 6.67034L48.1335 6.7095C49.8424 7.69694 51.9897 7.69803 53.7187 6.70162L53.7865 6.66269C58.6696 3.85044 65.3551 0 72.0442 0C80.4473 0 88.1521 3.59713 93.7396 10.1288C93.7416 10.1312 93.7438 10.1332 93.7458 10.1356C98.959 16.233 101.83 24.2314 101.83 32.6592C101.83 36.5687 100.854 42.5928 98.7606 51.6165C98.331 53.4675 96.4812 54.6188 94.6312 54.1903C92.7802 53.7607 91.628 51.912 92.0577 50.0612C94.003 41.6771 94.9489 35.985 94.9489 32.6589C94.9489 25.87 92.664 19.4591 88.5157 14.6073C88.5143 14.6055 88.5126 14.6038 88.5113 14.602C84.2518 9.62281 78.4039 6.881 72.0447 6.881C67.1952 6.881 61.4311 10.2005 57.2226 12.6243L57.1537 12.6639C53.3043 14.8824 48.5216 14.88 44.674 12.6571C44.665 12.6518 44.6331 12.6337 44.6241 12.6284C40.4248 10.2027 34.6747 6.881 29.7859 6.881C23.4266 6.881 17.5788 9.62281 13.3188 14.6018C9.16781 19.4541 6.88144 25.867 6.88144 32.6587C6.88144 43.1003 10.5219 58.0683 16.62 72.6981C17.379 74.5189 18.1048 77.3318 19.0242 80.8929C20.3755 86.126 22.0568 92.6387 24.3517 97.7412C25.7407 100.829 27.1998 103.017 28.6123 104.172C28.8249 103.298 29.059 102.311 29.2897 101.337C30.8304 94.8364 33.1588 85.0122 36.3333 76.5673C39.0965 69.2175 43.6308 59.4517 51.0783 59.4517C51.0893 59.4517 51.0989 59.4517 51.1101 59.4517C58.5659 59.4794 63.0217 69.2711 65.725 76.6336C68.8249 85.0769 71.0664 94.8804 72.5502 101.368C72.7676 102.319 72.9879 103.282 73.1892 104.139C75.0308 102.636 76.5706 99.673 77.4596 97.6815C79.7462 92.5582 81.4074 86.0031 82.7422 80.7358C83.6612 77.1083 84.3872 74.2431 85.1578 72.3896C85.8872 70.6348 87.9014 69.8036 89.6553 70.5331C91.4104 71.2624 92.2414 73.276 91.5119 75.0306C90.9342 76.4203 90.1948 79.3376 89.4121 82.4259C86.2527 94.8935 81.926 111.968 70.9244 111.968C68.0792 111.968 67.3789 109.26 66.9605 107.642C66.6601 106.48 66.2988 104.901 65.842 102.902C64.3974 96.5845 62.2138 87.0376 59.2653 79.0055C54.7479 66.7012 51.4458 66.3342 51.0847 66.3327C50.7231 66.346 47.404 66.6757 42.775 78.9884C39.7539 87.024 37.4861 96.5926 35.9861 102.924C35.5099 104.934 35.1334 106.521 34.8215 107.69C34.3901 109.302 33.67 112 30.8446 112Z" fill="#84DCC6"/>
<path d="M50.9149 34.9552C39.9855 34.9552 30.2501 30.3888 26.6893 23.5922C25.8075 21.9091 26.4569 19.8295 28.1402 18.9477C29.8226 18.0661 31.9029 18.7154 32.7847 20.3987C35.1523 24.9176 42.6079 28.0739 50.9149 28.0739C59.222 28.0739 66.6774 24.9178 69.0452 20.3987C69.9267 18.7156 72.0055 18.0657 73.6892 18.9477C75.3727 19.8295 76.022 21.9087 75.1402 23.5922C71.5796 30.3888 61.8439 34.9552 50.9149 34.9552Z" fill="#FFA69E"/>
<path d="M180.752 41.072C181.136 41.072 181.456 41.1787 181.712 41.392C181.968 41.6053 182.096 41.904 182.096 42.288L181.968 42.928L167.312 85.168C167.227 85.424 167.056 85.6373 166.8 85.808C166.587 85.936 166.373 86 166.16 86C165.477 86 165.051 85.744 164.88 85.232L153.168 55.664L141.456 85.232C141.243 85.744 140.795 86 140.112 86C139.856 86 139.621 85.936 139.408 85.808C139.195 85.6373 139.067 85.424 139.024 85.168L124.368 42.928L124.24 42.352C124.24 41.968 124.389 41.6693 124.688 41.456C124.987 41.2 125.307 41.072 125.648 41.072C125.904 41.072 126.139 41.1573 126.352 41.328C126.608 41.456 126.779 41.648 126.864 41.904L140.432 81.072L151.952 51.952C152.165 51.3973 152.571 51.12 153.168 51.12C153.424 51.12 153.659 51.2053 153.872 51.376C154.128 51.504 154.299 51.696 154.384 51.952L165.968 81.136L179.472 41.904C179.685 41.3493 180.112 41.072 180.752 41.072ZM203.577 53.68C207.246 53.68 210.062 54.8533 212.025 57.2C213.987 59.504 214.969 62.448 214.969 66.032V84.72C214.969 85.0613 214.841 85.36 214.585 85.616C214.329 85.872 214.03 86 213.689 86C213.305 86 212.985 85.872 212.729 85.616C212.515 85.36 212.409 85.0613 212.409 84.72V66.032C212.409 63.088 211.683 60.6987 210.233 58.864C208.782 57.0293 206.563 56.112 203.577 56.112C201.742 56.112 199.929 56.56 198.137 57.456C196.387 58.352 194.958 59.568 193.849 61.104C192.739 62.64 192.185 64.2827 192.185 66.032V84.72C192.185 85.0613 192.057 85.36 191.801 85.616C191.545 85.872 191.246 86 190.905 86C190.521 86 190.201 85.872 189.945 85.616C189.731 85.36 189.625 85.0613 189.625 84.72V39.92C189.625 39.5787 189.753 39.28 190.009 39.024C190.265 38.768 190.563 38.64 190.905 38.64C191.289 38.64 191.587 38.768 191.801 39.024C192.057 39.28 192.185 39.5787 192.185 39.92V60.144C193.379 58.2667 195.022 56.7307 197.113 55.536C199.246 54.2987 201.401 53.68 203.577 53.68ZM228.122 84.72C228.122 85.0613 227.994 85.36 227.738 85.616C227.482 85.872 227.183 86 226.842 86C226.458 86 226.138 85.872 225.882 85.616C225.669 85.36 225.562 85.0613 225.562 84.72V54.32C225.562 53.9787 225.69 53.68 225.946 53.424C226.202 53.168 226.501 53.04 226.842 53.04C227.226 53.04 227.525 53.168 227.738 53.424C227.994 53.68 228.122 53.9787 228.122 54.32V84.72ZM226.842 48.688C226.159 48.688 225.605 48.496 225.178 48.112C224.794 47.728 224.602 47.2373 224.602 46.64V46.128C224.602 45.5307 224.815 45.04 225.242 44.656C225.669 44.272 226.223 44.08 226.906 44.08C227.503 44.08 227.994 44.272 228.378 44.656C228.805 45.04 229.018 45.5307 229.018 46.128V46.64C229.018 47.2373 228.805 47.728 228.378 48.112C227.994 48.496 227.482 48.688 226.842 48.688ZM250.654 53.808C250.952 53.808 251.23 53.936 251.486 54.192C251.742 54.448 251.87 54.7253 251.87 55.024C251.87 55.3653 251.742 55.664 251.486 55.92C251.272 56.1333 250.995 56.24 250.654 56.24H243.614V79.024C243.614 80.9013 243.934 82.16 244.574 82.8C245.256 83.3973 246.11 83.696 247.134 83.696C247.304 83.696 247.539 83.6533 247.838 83.568C248.179 83.4827 248.456 83.44 248.67 83.44C248.968 83.44 249.224 83.568 249.438 83.824C249.651 84.0373 249.758 84.2933 249.758 84.592C249.758 84.976 249.502 85.3173 248.99 85.616C248.478 85.872 247.88 86 247.198 86C246.131 86 245.235 85.936 244.51 85.808C243.784 85.6373 243.016 85.0613 242.206 84.08C241.438 83.056 241.054 81.4133 241.054 79.152V56.24H235.806C235.507 56.24 235.23 56.112 234.974 55.856C234.718 55.6 234.59 55.3227 234.59 55.024C234.59 54.6827 234.696 54.4053 234.91 54.192C235.166 53.936 235.464 53.808 235.806 53.808H241.054V45.68C241.054 45.3387 241.182 45.04 241.438 44.784C241.694 44.528 241.992 44.4 242.334 44.4C242.718 44.4 243.016 44.528 243.23 44.784C243.486 45.04 243.614 45.3387 243.614 45.68V53.808H250.654ZM283.967 78.32C284.266 78.32 284.522 78.448 284.735 78.704C284.948 78.9173 285.055 79.1733 285.055 79.472C285.055 79.7707 284.97 80.0267 284.799 80.24C283.391 82.1173 281.642 83.6533 279.551 84.848C277.46 86.0427 275.22 86.64 272.831 86.64C269.631 86.64 266.794 85.9573 264.319 84.592C261.844 83.2267 259.903 81.2853 258.495 78.768C257.13 76.2507 256.447 73.328 256.447 70C256.447 66.5867 257.108 63.6 258.431 61.04C259.796 58.4373 261.588 56.4533 263.807 55.088C266.026 53.7227 268.394 53.04 270.911 53.04C273.428 53.04 275.754 53.5947 277.887 54.704C280.063 55.7707 281.834 57.392 283.199 59.568C284.564 61.744 285.29 64.432 285.375 67.632C285.375 67.9733 285.247 68.2933 284.991 68.592C284.735 68.848 284.436 68.976 284.095 68.976H258.943V69.808C258.943 72.4533 259.476 74.8853 260.543 77.104C261.61 79.28 263.188 81.008 265.279 82.288C267.37 83.568 269.887 84.208 272.831 84.208C274.879 84.208 276.799 83.7173 278.591 82.736C280.426 81.712 281.855 80.432 282.879 78.896C283.178 78.512 283.54 78.32 283.967 78.32ZM270.911 55.6C269.332 55.6 267.711 56.0267 266.047 56.88C264.426 57.6907 262.975 58.928 261.695 60.592C260.458 62.2133 259.626 64.1973 259.199 66.544H282.751V65.968C282.538 63.792 281.834 61.936 280.639 60.4C279.487 58.8213 278.036 57.6267 276.287 56.816C274.58 56.0053 272.788 55.6 270.911 55.6ZM319.03 78.32C319.328 78.32 319.584 78.448 319.798 78.704C320.011 78.9173 320.118 79.1733 320.118 79.472C320.118 79.7707 320.032 80.0267 319.862 80.24C318.454 82.1173 316.704 83.6533 314.614 84.848C312.523 86.0427 310.283 86.64 307.894 86.64C304.694 86.64 301.856 85.9573 299.382 84.592C296.907 83.2267 294.966 81.2853 293.558 78.768C292.192 76.2507 291.51 73.328 291.51 70C291.51 66.5867 292.171 63.6 293.494 61.04C294.859 58.4373 296.651 56.4533 298.87 55.088C301.088 53.7227 303.456 53.04 305.974 53.04C308.491 53.04 310.816 53.5947 312.95 54.704C315.126 55.7707 316.896 57.392 318.262 59.568C319.627 61.744 320.352 64.432 320.438 67.632C320.438 67.9733 320.31 68.2933 320.054 68.592C319.798 68.848 319.499 68.976 319.158 68.976H294.006V69.808C294.006 72.4533 294.539 74.8853 295.606 77.104C296.672 79.28 298.251 81.008 300.342 82.288C302.432 83.568 304.95 84.208 307.894 84.208C309.942 84.208 311.862 83.7173 313.654 82.736C315.488 81.712 316.918 80.432 317.942 78.896C318.24 78.512 318.603 78.32 319.03 78.32ZM305.974 55.6C304.395 55.6 302.774 56.0267 301.11 56.88C299.488 57.6907 298.038 58.928 296.758 60.592C295.52 62.2133 294.688 64.1973 294.262 66.544H317.814V65.968C317.6 63.792 316.896 61.936 315.702 60.4C314.55 58.8213 313.099 57.6267 311.35 56.816C309.643 56.0053 307.851 55.6 305.974 55.6ZM340.716 53.808C341.015 53.808 341.292 53.936 341.548 54.192C341.804 54.448 341.932 54.7253 341.932 55.024C341.932 55.3653 341.804 55.664 341.548 55.92C341.335 56.1333 341.057 56.24 340.716 56.24H333.676V79.024C333.676 80.9013 333.996 82.16 334.636 82.8C335.319 83.3973 336.172 83.696 337.196 83.696C337.367 83.696 337.601 83.6533 337.9 83.568C338.241 83.4827 338.519 83.44 338.732 83.44C339.031 83.44 339.287 83.568 339.5 83.824C339.713 84.0373 339.82 84.2933 339.82 84.592C339.82 84.976 339.564 85.3173 339.052 85.616C338.54 85.872 337.943 86 337.26 86C336.193 86 335.297 85.936 334.572 85.808C333.847 85.6373 333.079 85.0613 332.268 84.08C331.5 83.056 331.116 81.4133 331.116 79.152V56.24H325.868C325.569 56.24 325.292 56.112 325.036 55.856C324.78 55.6 324.652 55.3227 324.652 55.024C324.652 54.6827 324.759 54.4053 324.972 54.192C325.228 53.936 325.527 53.808 325.868 53.808H331.116V45.68C331.116 45.3387 331.244 45.04 331.5 44.784C331.756 44.528 332.055 44.4 332.396 44.4C332.78 44.4 333.079 44.528 333.292 44.784C333.548 45.04 333.676 45.3387 333.676 45.68V53.808H340.716ZM363.014 53.68C366.683 53.68 369.499 54.8533 371.462 57.2C373.425 59.504 374.406 62.448 374.406 66.032V84.72C374.406 85.0613 374.278 85.36 374.022 85.616C373.766 85.872 373.467 86 373.126 86C372.742 86 372.422 85.872 372.166 85.616C371.953 85.36 371.846 85.0613 371.846 84.72V66.032C371.846 63.088 371.121 60.6987 369.67 58.864C368.219 57.0293 366.001 56.112 363.014 56.112C361.179 56.112 359.366 56.56 357.574 57.456C355.825 58.352 354.395 59.568 353.286 61.104C352.177 62.64 351.622 64.2827 351.622 66.032V84.72C351.622 85.0613 351.494 85.36 351.238 85.616C350.982 85.872 350.683 86 350.342 86C349.958 86 349.638 85.872 349.382 85.616C349.169 85.36 349.062 85.0613 349.062 84.72V39.92C349.062 39.5787 349.19 39.28 349.446 39.024C349.702 38.768 350.001 38.64 350.342 38.64C350.726 38.64 351.025 38.768 351.238 39.024C351.494 39.28 351.622 39.5787 351.622 39.92V60.144C352.817 58.2667 354.459 56.7307 356.55 55.536C358.683 54.2987 360.838 53.68 363.014 53.68Z" fill="#28423B"/>
</svg>
